<svg width="40" height="40" viewBox="0 0 40 40" fill="none" xmlns="http://www.w3.org/2000/svg">
<g id="lets-icons:3d-box-fill">
<path id="Vector" fill-rule="evenodd" clip-rule="evenodd" d="M16.125 32.2333L11.125 28.66C9.75665 27.6833 9.07165 27.1933 8.70331 26.4767C8.33498 25.76 8.33331 24.9167 8.33331 23.2367V16.765C8.33331 16.2283 8.33331 15.7783 8.34498 15.39L18.3333 22.5233V33.7183C17.7383 33.385 17.045 32.89 16.125 32.2333ZM21.6666 33.7167C22.2616 33.3833 22.955 32.8867 23.875 32.23L28.875 28.6583C30.2433 27.6817 30.9283 27.1917 31.2966 26.475C31.665 25.7583 31.6666 24.9167 31.6666 23.2367V16.765C31.6666 16.2283 31.6666 15.7783 31.655 15.39L21.6666 22.5233V33.7167ZM30.2133 12.3217L20 19.6183L9.78665 12.3233C10.14 12.0433 10.5783 11.73 11.125 11.34L16.125 7.76834C17.9966 6.43167 18.9333 5.76334 20 5.76334C21.0666 5.76334 22.0033 6.43 23.875 7.76834L28.875 11.34C29.4233 11.73 29.86 12.0417 30.2133 12.3217Z" fill="black"/>
</g>
</svg>
